####
#
# OBJ File Generated by Meshlab
#
####
# Object tour_part_dieu_1.obj
#
# Vertices: 86
# Faces: 183
#
####
vn -0.564810 0.547796 -0.617178
v -52.621426 75.172340 -11.257724 1.000000 1.000000 1.000000
vn -0.788223 0.203079 -0.580917
v -65.433060 58.546822 -11.257726 1.000000 1.000000 1.000000
vn -0.392785 0.179203 0.902001
v -52.392487 62.729973 0.176795 1.000000 1.000000 1.000000
vn -0.230292 -0.517398 0.824175
v -37.826778 51.291874 0.000177 1.000000 1.000000 1.000000
vn 0.343980 0.374957 -0.860863
v 7.244951 9.948045 -11.257723 1.000000 1.000000 1.000000
vn -0.180245 0.611238 -0.770649
v -36.450981 25.710852 -11.257727 1.000000 1.000000 1.000000
vn 0.364852 0.545874 0.754258
v 7.068209 -12.241454 -0.000006 1.000000 1.000000 1.000000
vn -0.408536 0.060792 0.910716
v -24.806791 32.758545 -0.000006 1.000000 1.000000 1.000000
vn -0.199639 0.960473 -0.193998
v -66.447479 -51.726341 -1.574689 1.000000 1.000000 1.000000
vn 0.846753 -0.423179 0.322382
v 15.425355 -38.367996 -0.321634 1.000000 1.000000 1.000000
vn -0.562997 -0.378572 0.734654
v -61.931789 54.091877 -0.000006 1.000000 1.000000 1.000000
vn -0.334299 -0.728003 -0.598544
v -58.967583 49.235970 -11.256434 1.000000 1.000000 1.000000
vn -0.564698 0.560513 0.605757
v -47.131920 25.913609 -0.000030 1.000000 1.000000 1.000000
vn 0.041121 -0.598653 -0.799952
v -18.831142 -48.947079 -11.257725 1.000000 1.000000 1.000000
vn -0.731616 0.291978 0.616025
v -23.512674 -19.212042 134.873566 1.000000 1.000000 1.000000
vn 0.062192 -0.044596 0.997067
v -27.471090 61.579056 0.674340 1.000000 1.000000 1.000000
vn 0.563069 0.551747 0.615247
v 22.568209 7.758545 -0.000006 1.000000 1.000000 1.000000
vn 0.282791 0.352453 -0.892080
v 24.878532 -6.743296 -11.257724 1.000000 1.000000 1.000000
vn -0.201338 0.701167 0.683979
v -29.465124 83.491875 0.962579 1.000000 1.000000 1.000000
vn 0.658389 -0.480347 0.579475
v 113.818214 -23.241453 -0.000006 1.000000 1.000000 1.000000
vn 0.375960 0.727630 -0.573767
v -11.181790 89.258545 -11.257726 1.000000 1.000000 1.000000
vn 0.470585 -0.609704 0.637817
v 8.550350 -48.241455 134.873550 1.000000 1.000000 1.000000
vn 0.026022 -0.878960 0.476186
v -3.962260 -52.153954 135.310089 1.000000 1.000000 1.000000
vn 0.374931 0.744436 0.552488
v -11.181791 89.258545 -0.000006 1.000000 1.000000 1.000000
vn 0.659428 -0.479832 -0.578720
v 113.818207 -23.241453 -11.257727 1.000000 1.000000 1.000000
vn -0.218285 0.652115 -0.726015
v -29.360363 82.758545 -11.257727 1.000000 1.000000 1.000000
vn -0.867853 -0.215628 0.447588
v -23.077126 -37.915874 135.122849 1.000000 1.000000 1.000000
vn 0.563851 0.572979 -0.594782
v 22.568209 7.758546 -11.257727 1.000000 1.000000 1.000000
vn 0.290750 0.353273 0.889192
v 24.904848 -6.972989 -0.866441 1.000000 1.000000 1.000000
vn 0.023990 -0.102522 0.994441
v -36.712250 61.743912 2.484879 1.000000 1.000000 1.000000
vn 0.674636 0.182590 -0.715212
v -9.119292 81.908546 -11.257728 1.000000 1.000000 1.000000
vn 0.753280 -0.184981 0.631151
v 15.499671 -37.843727 134.873550 1.000000 1.000000 1.000000
vn 0.180328 0.679340 0.711322
v -3.629159 -8.951981 -0.000006 1.000000 1.000000 1.000000
vn -0.191802 -0.594184 -0.781126
v -40.929012 50.617805 -11.257726 1.000000 1.000000 1.000000
vn 0.370589 0.357622 0.857188
v 7.017831 10.327670 -0.000006 1.000000 1.000000 1.000000
vn -0.284291 0.733382 0.617519
v -36.580410 25.755001 -1.250864 1.000000 1.000000 1.000000
vn -0.394704 0.075739 -0.915681
v -24.806791 32.758545 -11.257728 1.000000 1.000000 1.000000
vn -0.403046 0.073878 0.912193
v -54.806786 -47.591457 -0.000006 1.000000 1.000000 1.000000
vn -0.671786 0.231682 -0.703581
v -42.909470 -22.629927 -11.257726 1.000000 1.000000 1.000000
vn -0.618477 -0.459024 0.637796
v -46.137489 14.472528 -0.362088 1.000000 1.000000 1.000000
vn -0.706391 0.022969 0.707449
v -23.390125 -18.908119 -0.000006 1.000000 1.000000 1.000000
vn 0.000000 0.000000 -1.000000
v -16.100269 -45.350151 -11.257722 1.000000 1.000000 1.000000
vn -0.223859 -0.641879 -0.733402
v -4.931791 -52.711357 -11.257725 1.000000 1.000000 1.000000
vn 0.732229 -0.672526 0.107472
v 10.700462 -53.507889 -2.025677 1.000000 1.000000 1.000000
vn -0.160993 -0.986693 -0.022766
v 1.319489 -56.913548 -3.115164 1.000000 1.000000 1.000000
vn 0.474721 -0.690956 -0.545179
v 10.529056 -56.461639 -11.256638 1.000000 1.000000 1.000000
vn -0.734415 0.286019 0.615490
v -43.107155 -21.319847 -1.185029 1.000000 1.000000 1.000000
vn -0.632036 -0.492433 -0.598365
v -46.005550 13.910436 -11.257717 1.000000 1.000000 1.000000
vn -0.596598 -0.201345 0.776873
v -24.057667 -40.105492 -0.000006 1.000000 1.000000 1.000000
vn -0.486046 -0.656649 0.576690
v -90.556793 -64.241455 -0.000006 1.000000 1.000000 1.000000
vn 0.009064 0.530113 -0.847879
v -83.792496 -51.391777 -11.257868 1.000000 1.000000 1.000000
vn -0.484756 -0.484279 0.728345
v -36.686085 9.228878 -2.245624 1.000000 1.000000 1.000000
vn -0.708666 0.342088 0.617064
v -91.556793 -57.241455 -0.000006 1.000000 1.000000 1.000000
vn -0.297320 0.651830 -0.697652
v -46.072155 -15.605741 -11.256634 1.000000 1.000000 1.000000
vn -0.540113 0.053666 -0.839880
v -31.358717 -2.779915 -11.257726 1.000000 1.000000 1.000000
vn -0.289197 0.394968 0.871989
v -23.477053 -4.221226 -0.009061 1.000000 1.000000 1.000000
vn -0.557964 0.299922 0.773772
v -46.298275 -38.800522 -0.000081 1.000000 1.000000 1.000000
vn -0.412090 -0.443854 -0.795723
v -37.727936 10.621862 -11.256877 1.000000 1.000000 1.000000
vn -0.166763 0.875890 0.452776
v -83.522469 -51.535530 -3.213390 1.000000 1.000000 1.000000
vn -0.265278 0.407733 0.873717
v -45.255493 -17.936939 -0.000290 1.000000 1.000000 1.000000
vn -0.712489 -0.052750 0.699697
v -31.301470 -1.309874 -2.285408 1.000000 1.000000 1.000000
vn -0.695924 0.168370 -0.698098
v -91.556770 -57.241455 -11.257728 1.000000 1.000000 1.000000
vn -0.047709 -0.003190 -0.998856
v -25.348457 -2.574787 -11.257726 1.000000 1.000000 1.000000
vn -0.483847 -0.657407 -0.577675
v -90.556793 -64.241455 -11.257727 1.000000 1.000000 1.000000
vn -0.560451 0.274642 -0.781324
v -45.796982 -38.119843 -11.257735 1.000000 1.000000 1.000000
vn 0.724609 0.214354 0.654976
v -8.494291 82.008545 -0.000006 1.000000 1.000000 1.000000
vn 0.838569 0.296986 0.456728
v 13.832794 -21.652742 135.255997 1.000000 1.000000 1.000000
vn 0.508618 0.637713 0.578472
v 110.568214 -0.741454 -0.000006 1.000000 1.000000 1.000000
vn -0.009549 -0.008096 0.999922
v -5.056791 -30.741453 157.782654 1.000000 1.000000 1.000000
vn -0.021686 0.863548 0.503800
v -5.925227 -9.569186 135.360596 1.000000 1.000000 1.000000
vn -0.360748 -0.693282 0.623876
v -59.332874 49.818611 0.000016 1.000000 1.000000 1.000000
vn -0.612892 0.534269 -0.582168
v -47.149403 25.384497 -11.257640 1.000000 1.000000 1.000000
vn 0.624247 0.222869 0.748762
v 14.109127 -21.232498 -0.000006 1.000000 1.000000 1.000000
vn -0.575002 0.403897 -0.711506
v -56.325291 64.202988 -11.257725 1.000000 1.000000 1.000000
vn -0.370891 0.690015 0.621546
v -15.181791 -10.741454 134.873596 1.000000 1.000000 1.000000
vn -0.601196 0.530448 0.597652
v -52.000164 75.744682 0.471465 1.000000 1.000000 1.000000
vn -0.800341 0.335321 0.497006
v -66.725998 60.071648 -0.000054 1.000000 1.000000 1.000000
vn 0.503319 0.640597 -0.579918
v 110.568207 -0.741454 -11.257727 1.000000 1.000000 1.000000
vn -0.047561 0.722029 0.690226
v 95.340942 -1.650545 -0.000006 1.000000 1.000000 1.000000
vn 0.389606 -0.392636 -0.833093
v 14.926541 -40.141457 -11.257726 1.000000 1.000000 1.000000
vn -0.100343 0.644464 -0.758022
v -66.642509 -51.947865 -11.257724 1.000000 1.000000 1.000000
vn -0.357330 0.541634 -0.760886
v -54.678516 -47.507687 -11.257724 1.000000 1.000000 1.000000
vn -0.520657 -0.597769 0.609581
v -18.312744 -47.098598 134.873566 1.000000 1.000000 1.000000
vn 0.665037 -0.545296 0.510272
v -19.931791 -53.241455 -0.000006 1.000000 1.000000 1.000000
vn -0.047757 0.688116 -0.724028
v 95.418190 -2.191453 -11.257728 1.000000 1.000000 1.000000
vn 0.438968 0.671942 0.596490
v 7.068209 -12.241454 134.873596 1.000000 1.000000 1.000000
# 86 vertices, 0 vertices normals

f 16//16 30//30 4//4
f 9//9 49//49 38//38
f 79//79 20//20 68//68
f 65//65 63//63 42//42
f 54//54 55//55 39//39
f 54//54 39//39 55//55
f 49//49 14//14 83//83
f 29//29 17//17 35//35
f 48//48 6//6 37//37
f 27//27 69//69 70//70
f 57//57 38//38 49//49
f 76//76 26//26 1//1
f 79//79 29//29 10//10
f 42//42 27//27 14//14
f 42//42 14//14 27//27
f 64//64 62//62 14//14
f 24//24 19//19 66//66
f 73//73 29//29 7//7
f 76//76 19//19 26//26
f 36//36 8//8 6//6
f 31//31 5//5 26//26
f 16//16 19//19 30//30
f 40//40 36//36 13//13
f 76//76 30//30 19//19
f 55//55 39//39 61//61
f 56//56 49//49 41//41
f 56//56 75//75 70//70
f 31//31 26//26 21//21
f 8//8 35//35 4//4
f 80//80 46//46 43//43
f 80//80 78//78 25//25
f 77//77 11//11 4//4
f 79//79 85//85 18//18
f 56//56 41//41 75//75
f 25//25 78//78 68//68
f 23//23 67//67 69//69
f 56//56 61//61 47//47
f 24//24 21//21 26//26
f 73//73 67//67 32//32
f 59//59 62//62 53//53
f 69//69 67//67 70//70
f 80//80 42//42 18//18
f 43//43 46//46 45//45
f 58//58 55//55 52//52
f 49//49 83//83 27//27
f 42//42 81//81 82//82
f 40//40 13//13 72//72
f 51//51 9//9 81//81
f 33//33 7//7 29//29
f 58//58 48//48 37//37
f 48//48 40//40 72//72
f 56//56 55//55 61//61
f 33//33 56//56 70//70
f 38//38 82//82 81//81
f 24//24 31//31 21//21
f 75//75 15//15 70//70
f 65//65 47//47 39//39
f 39//39 47//47 61//61
f 36//36 72//72 13//13
f 42//42 5//5 18//18
f 45//45 46//46 44//44
f 45//45 10//10 44//44
f 45//45 44//44 10//10
f 18//18 17//17 29//29
f 5//5 17//17 28//28
f 54//54 47//47 39//39
f 8//8 4//4 37//37
f 53//53 49//49 9//9
f 18//18 28//28 17//17
f 79//79 10//10 20//20
f 59//59 62//62 51//51
f 59//59 51//51 62//62
f 2//2 34//34 12//12
f 73//73 10//10 29//29
f 23//23 69//69 27//27
f 53//53 50//50 84//84
f 9//9 38//38 81//81
f 76//76 3//3 30//30
f 68//68 78//78 85//85
f 63//63 5//5 42//42
f 23//23 83//83 14//14
f 64//64 84//84 50//50
f 65//65 39//39 63//63
f 67//67 86//86 70//70
f 80//80 25//25 20//20
f 54//54 39//39 60//60
f 41//41 15//15 75//75
f 33//33 8//8 52//52
f 5//5 74//74 26//26
f 63//63 39//39 55//55
f 79//79 18//18 29//29
f 48//48 72//72 6//6
f 80//80 20//20 10//10
f 32//32 22//22 44//44
f 16//16 4//4 35//35
f 4//4 71//71 12//12
f 52//52 8//8 40//40
f 45//45 44//44 22//22
f 23//23 27//27 83//83
f 56//56 47//47 57//57
f 46//46 10//10 44//44
f 27//27 70//70 15//15
f 32//32 67//67 22//22
f 33//33 29//29 35//35
f 2//2 74//74 34//34
f 59//59 53//53 9//9
f 16//16 35//35 19//19
f 60//60 47//47 61//61
f 60//60 61//61 47//47
f 11//11 71//71 4//4
f 52//52 61//61 56//56
f 39//39 47//47 60//60
f 5//5 35//35 17//17
f 59//59 9//9 51//51
f 23//23 22//22 67//67
f 41//41 49//49 15//15
f 58//58 40//40 48//48
f 66//66 35//35 5//5
f 51//51 81//81 62//62
f 4//4 12//12 34//34
f 37//37 4//4 34//34
f 43//43 23//23 14//14
f 49//49 84//84 14//14
f 80//80 18//18 85//85
f 53//53 84//84 49//49
f 37//37 34//34 5//5
f 2//2 12//12 71//71
f 43//43 14//14 42//42
f 66//66 19//19 35//35
f 30//30 3//3 4//4
f 65//65 42//42 82//82
f 24//24 26//26 19//19
f 53//53 64//64 50//50
f 33//33 86//86 7//7
f 58//58 5//5 55//55
f 65//65 57//57 47//47
f 73//73 32//32 10//10
f 58//58 37//37 5//5
f 42//42 62//62 81//81
f 1//1 26//26 74//74
f 76//76 74//74 3//3
f 33//33 70//70 86//86
f 80//80 43//43 42//42
f 58//58 52//52 40//40
f 64//64 14//14 84//84
f 27//27 14//14 83//83
f 27//27 83//83 14//14
f 8//8 37//37 6//6
f 76//76 1//1 74//74
f 56//56 57//57 49//49
f 2//2 77//77 3//3
f 80//80 10//10 46//46
f 77//77 4//4 3//3
f 34//34 74//74 5//5
f 65//65 82//82 57//57
f 33//33 35//35 8//8
f 40//40 8//8 36//36
f 2//2 3//3 74//74
f 63//63 61//61 55//55
f 33//33 52//52 56//56
f 7//7 86//86 67//67
f 42//42 14//14 62//62
f 66//66 5//5 31//31
f 25//25 68//68 20//20
f 49//49 27//27 15//15
f 18//18 5//5 28//28
f 73//73 7//7 67//67
f 54//54 60//60 47//47
f 36//36 6//6 72//72
f 2//2 11//11 77//77
f 2//2 71//71 11//11
f 56//56 63//63 55//55
f 56//56 61//61 63//63
f 63//63 55//55 5//5
f 32//32 44//44 10//10
f 24//24 66//66 31//31
f 45//45 22//22 23//23
f 53//53 62//62 64//64
f 79//79 68//68 85//85
f 57//57 82//82 38//38
f 43//43 45//45 23//23
f 80//80 85//85 78//78
f 52//52 55//55 61//61
# 183 faces, 0 coords texture

# End of File
